<svg xmlns="http://www.w3.org/2000/svg" viewBox="0 0 400 400"><defs><filter id="a" x="-20%" y="-20%" width="140%" height="140%"><feDropShadow dx="0" dy="3" stdDeviation="3" flood-opacity=".2"/></filter></defs><circle cx="200" cy="200" r="198" class="wheel-outline" fill="#fff" stroke="#e5e7eb" stroke-width="2"/><g stroke="#fff"><path d="M200 200V2a198 198 0 0 1 142.6 55.4Z" fill="#F87171"/><path d="M200 200 342.6 57.4A198 198 0 0 1 398 200Z" fill="#60A5FA"/><path d="M200 200h198a198 198 0 0 1-55.4 142.6Z" fill="#34D399"/><path d="m200 200 142.6 142.6A198 198 0 0 1 200 398Z" fill="#A78BFA"/><path d="M200 200v198a198 198 0 0 1-142.6-55.4Z" fill="#FBBF24"/><path d="M200 200 57.4 342.6A198 198 0 0 1 2 200Z" fill="#F472B6"/><path d="M200 200H2A198 198 0 0 1 57.4 57.4Z" fill="#6EE7B7"/><path d="M200 200 57.4 57.4A198 198 0 0 1 200 2Z" fill="#93C5FD"/></g><circle cx="200" cy="200" r="50" class="wheel-center" fill="#3B82F6" filter="url(#a)"/><text x="200" y="205" text-anchor="middle" fill="#fff" font-family="sans-serif" font-size="16" font-weight="bold">SPIN</text></svg>